<svg id="SvgjsSvg1108" width="288" height="288" xmlns="http://www.w3.org/2000/svg" version="1.1" xmlns:xlink="http://www.w3.org/1999/xlink" xmlns:svgjs="http://svgjs.com/svgjs"><defs id="SvgjsDefs1109"></defs><g id="SvgjsG1110"><svg xmlns="http://www.w3.org/2000/svg" width="288" height="288" data-name="Layer 1" viewBox="0 0 1054.402 786.127"><path fill="#f2f2f2" d="M498.79886,510c-30.59473,113.5885-95.36335,213-213,213s-213-95.36335-213-213,123.98953-136.08759,213-213C466.55258,140.81384,593.81015,157.25343,498.79886,510Z" transform="translate(-72.799 -56.436)" class="colorf2f2f2 svgShape"></path><circle cx="488.402" cy="105" r="68" fill="#ff6584" class="colorff6584 svgShape"></circle><rect width="36" height="36" x="575.402" y="10" fill="#ff6584" class="colorff6584 svgShape"></rect><ellipse cx="215.598" cy="667" fill="#3f3d56" rx="170" ry="23.127" class="color3f3d56 svgShape"></ellipse><rect width="230" height="117" x="263.402" y="129" fill="#006aee" class="color6c63ff svgShape"></rect><circle cx="206.402" cy="554" r="79" fill="#2f2e41" class="color2f2e41 svgShape"></circle><rect width="24" height="43" x="170.402" y="616" fill="#2f2e41" class="color2f2e41 svgShape"></rect><rect width="24" height="43" x="218.402" y="616" fill="#2f2e41" class="color2f2e41 svgShape"></rect><ellipse cx="190.402" cy="659.5" fill="#2f2e41" rx="20" ry="7.5" class="color2f2e41 svgShape"></ellipse><ellipse cx="238.402" cy="658.5" fill="#2f2e41" rx="20" ry="7.5" class="color2f2e41 svgShape"></ellipse><circle cx="208.402" cy="534" r="27" fill="#ffffff" class="colorfff svgShape"></circle><circle cx="208.402" cy="534" r="9" fill="#3f3d56" class="color3f3d56 svgShape"></circle><path fill="#006aee" d="M202.56847,536.96867c-6.37889-28.56758,14.01185-57.43391,45.544-64.47476s62.2651,10.41,68.644,38.97759-14.51861,39.1038-46.05075,46.14465S208.94736,565.53625,202.56847,536.96867Z" transform="translate(-72.799 -56.436)" class="color6c63ff svgShape"></path><circle cx="179.402" cy="327" r="79" fill="#2f2e41" class="color2f2e41 svgShape"></circle><rect width="24" height="43" x="143.402" y="389" fill="#2f2e41" class="color2f2e41 svgShape"></rect><rect width="24" height="43" x="191.402" y="389" fill="#2f2e41" class="color2f2e41 svgShape"></rect><ellipse cx="163.402" cy="432.5" fill="#2f2e41" rx="20" ry="7.5" class="color2f2e41 svgShape"></ellipse><ellipse cx="211.402" cy="431.5" fill="#2f2e41" rx="20" ry="7.5" class="color2f2e41 svgShape"></ellipse><circle cx="181.402" cy="307" r="27" fill="#ffffff" class="colorfff svgShape"></circle><circle cx="181.402" cy="307" r="9" fill="#3f3d56" class="color3f3d56 svgShape"></circle><path fill="#006aee" d="M175.56847,309.96867c-6.37889-28.56758,14.01185-57.43391,45.544-64.47476s62.2651,10.41,68.644,38.97759-14.51861,39.1038-46.05075,46.14465S181.94736,338.53625,175.56847,309.96867Z" transform="translate(-72.799 -56.436)" class="color6c63ff svgShape"></path><ellipse cx="325.221" cy="323.78" fill="#2f2e41" rx="39.5" ry="12.4" transform="rotate(-69.082 247.827 348.442)" class="color2f2e41 svgShape"></ellipse><ellipse cx="163.221" cy="346.78" fill="#2f2e41" rx="12.4" ry="39.5" transform="rotate(-64.626 82.207 376.111)" class="color2f2e41 svgShape"></ellipse><path fill="#ffffff" d="M213.39658,411.9364c0,7.732,19.90861,23,42,23s42.80456-21.768,42.80456-29.5-20.71317,1.5-42.80456,1.5S213.39658,404.20441,213.39658,411.9364Z" transform="translate(-72.799 -56.436)" class="colorfff svgShape"></path><rect width="230" height="117" x="285.402" y="112" fill="none" stroke="#3f3d56" stroke-miterlimit="10" stroke-width="2" class="colorStroke3f3d56 svgStroke"></rect><rect width="36" height="36" x="587.402" y="1" fill="none" stroke="#3f3d56" stroke-miterlimit="10" stroke-width="2" class="colorStroke3f3d56 svgStroke"></rect><path fill="#f2f2f2" d="M1127.20114,596.73349c0,81.82751-48.64516,110.39862-108.652,110.39862s-108.652-28.57111-108.652-110.39862,108.652-185.925,108.652-185.925S1127.20114,514.906,1127.20114,596.73349Z" transform="translate(-72.799 -56.436)" class="colorf2f2f2 svgShape"></path><polygon fill="#3f3d56" points="941.792 638.179 942.905 569.696 989.215 484.974 943.079 558.954 943.58 528.161 975.496 466.865 943.712 520.012 943.712 520.013 944.612 464.631 978.789 415.832 944.753 455.922 945.315 354.372 941.783 488.806 942.073 483.26 907.325 430.072 941.516 493.906 938.278 555.758 938.182 554.116 898.123 498.144 938.06 559.916 937.655 567.651 937.583 567.767 937.616 568.402 929.402 725.325 940.377 725.325 941.693 644.272 981.533 582.651 941.792 638.179" class="color3f3d56 svgShape"></polygon><ellipse cx="934.07" cy="725.322" fill="#3f3d56" rx="37.779" ry="11.194" class="color3f3d56 svgShape"></ellipse><ellipse cx="764.598" cy="763" fill="#3f3d56" rx="170" ry="23.127" class="color3f3d56 svgShape"></ellipse><circle cx="766.598" cy="644.5" r="79" fill="#2f2e41" class="color2f2e41 svgShape"></circle><rect width="24" height="43" x="851.397" y="762.936" fill="#2f2e41" transform="rotate(-180 826.997 756.218)" class="color2f2e41 svgShape"></rect><rect width="24" height="43" x="803.397" y="762.936" fill="#2f2e41" transform="rotate(-180 778.997 756.218)" class="color2f2e41 svgShape"></rect><ellipse cx="810.397" cy="810.436" fill="#2f2e41" rx="20" ry="7.5" transform="rotate(-30 668.685 918.063)" class="color2f2e41 svgShape"></ellipse><ellipse cx="857.397" cy="810.436" fill="#2f2e41" rx="20" ry="7.5" transform="rotate(-30 715.685 918.063)" class="color2f2e41 svgShape"></ellipse><circle cx="764.598" cy="624.5" r="27" fill="#ffffff" class="colorfff svgShape"></circle><circle cx="755.402" cy="613" r="9" fill="#3f3d56" class="color3f3d56 svgShape"></circle><path fill="#006aee" d="M916.02925,627.46867c6.37889-28.56758-14.01185-57.43391-45.544-64.47476s-62.2651,10.41-68.644,38.97759,14.51862,39.1038,46.05076,46.14465S909.65036,656.03625,916.02925,627.46867Z" transform="translate(-72.799 -56.436)" class="color6c63ff svgShape"></path><ellipse cx="770.181" cy="673.78" fill="#2f2e41" rx="12.4" ry="39.5" transform="rotate(-66.829 691.01 700.734)" class="color2f2e41 svgShape"></ellipse><ellipse cx="918.181" cy="726.78" fill="#2f2e41" rx="12.4" ry="39.5" transform="rotate(-66.829 839.01 753.734)" class="color2f2e41 svgShape"></ellipse><rect width="36" height="36" x="633.402" y="570" fill="#ff6584" class="colorff6584 svgShape"></rect><rect width="36" height="36" x="595.402" y="506" fill="none" stroke="#3f3d56" stroke-miterlimit="10" stroke-width="2" class="colorStroke3f3d56 svgStroke"></rect><path fill="#ffffff" d="M855.20114,735.4364a18,18,0,0,1-36,0c0-9.94113,8.05887-12,18-12S855.20114,725.49527,855.20114,735.4364Z" transform="translate(-72.799 -56.436)" class="colorfff svgShape"></path></svg></g></svg>